<svg xmlns="http://www.w3.org/2000/svg" width="48" height="48" viewBox="0 0 48 48">
  <defs>
    <linearGradient id="beeBody" x1="0" y1="0" x2="1" y2="1">
      <stop offset="0" stop-color="#fde68a" />
      <stop offset="1" stop-color="#fbbf24" />
    </linearGradient>
  </defs>

  <!-- Background circle -->
  <circle cx="24" cy="24" r="22" fill="#0f172a" />

  <!-- Wings -->
  <ellipse cx="18" cy="15" rx="6" ry="4.5" fill="#e0f2fe" stroke="#bae6fd" stroke-width="1.2" />
  <ellipse cx="30" cy="15" rx="6" ry="4.5" fill="#e0f2fe" stroke="#bae6fd" stroke-width="1.2" />

  <!-- Body -->
  <ellipse cx="24" cy="27" rx="11" ry="10" fill="url(#beeBody)" stroke="#f97316" stroke-width="1.4" />

  <!-- Black stripes -->
  <path d="M18 20.5h12a9 9 0 0 1 2.8 1.1v3.2H15.2v-2.8a9 9 0 0 1 2.8-1.5Z" fill="#111827" opacity="0.9" />
  <path d="M15.2 25.8h17.6v3.8H15.2z" fill="#111827" opacity="0.95" />
  <path d="M15.4 31h17.2a8 8 0 0 1-3.3 4.6A10 10 0 0 1 24 37.5a10 10 0 0 1-5.3-1.8A8 8 0 0 1 15.4 31Z" fill="#111827" opacity="0.9" />

  <!-- Head -->
  <circle cx="16.5" cy="22" r="4.2" fill="#111827" />

  <!-- Eyes -->
  <circle cx="15.4" cy="21.2" r="0.9" fill="#f9fafb" />
  <circle cx="17.6" cy="21.4" r="0.9" fill="#f9fafb" />
  <circle cx="15.6" cy="21.1" r="0.35" fill="#020617" />
  <circle cx="17.8" cy="21.3" r="0.35" fill="#020617" />

  <!-- Smile -->
  <path d="M15 23.6c.5.6 1.1.9 1.8.9s1.3-.3 1.8-.9" fill="none" stroke="#facc15" stroke-width="0.7" stroke-linecap="round" />

  <!-- Antennae -->
  <path d="M15.8 17.6 14 14.5" stroke="#f9fafb" stroke-width="0.9" stroke-linecap="round" />
  <path d="M17.4 17.4 18.8 14" stroke="#f9fafb" stroke-width="0.9" stroke-linecap="round" />
  <circle cx="13.7" cy="14.1" r="0.7" fill="#facc15" />
  <circle cx="19.1" cy="13.7" r="0.7" fill="#facc15" />

  <!-- Tail sting -->
  <path d="M33.5 27.2 37 29.5 33.2 30.4" fill="#111827" />
</svg>